<?xml version="1.0" encoding="utf-8"?>
<svg viewBox="0 0 450 450" xmlns="http://www.w3.org/2000/svg">
  <path d="M 4.366 -1.284 C 152.866 -1.284 301.366 -1.284 454.366 -1.284 C 454.366 147.216 454.366 295.716 454.366 448.716 C 305.866 448.716 157.366 448.716 4.366 448.716 C 4.366 300.216 4.366 151.716 4.366 -1.284 Z" fill="#000000"/>
  <path d="M 84.524 143.893 C 90.617 143.893 96.71 143.893 102.987 143.893 C 102.987 150.064 102.987 156.233 102.987 162.591 C 114.955 162.591 126.923 162.591 139.254 162.591 C 139.254 168.541 139.254 174.491 139.254 180.621 C 151.222 180.621 163.19 180.621 175.521 180.621 C 175.521 186.791 175.521 192.961 175.521 199.318 C 193.582 199.318 211.643 199.318 230.25 199.318 C 230.25 205.268 230.25 211.218 230.25 217.348 C 236.126 217.348 242.001 217.348 248.053 217.348 C 248.053 205.448 248.053 193.548 248.053 181.288 C 242.397 181.288 236.739 181.288 230.909 181.288 C 230.25 180.621 230.25 180.621 230.175 178.89 C 230.178 178.138 230.183 177.386 230.186 176.612 C 230.187 175.881 230.189 175.15 230.191 174.397 C 230.198 173.463 230.203 172.527 230.21 171.564 C 230.222 168.603 230.236 165.642 230.25 162.591 C 224.157 162.591 218.065 162.591 211.787 162.591 C 211.787 156.421 211.787 150.25 211.787 143.893 C 223.755 143.893 235.724 143.893 248.053 143.893 C 248.053 150.064 248.053 156.233 248.053 162.591 C 266.115 162.591 284.176 162.591 302.784 162.591 C 302.784 168.541 302.784 174.491 302.784 180.621 C 308.877 180.621 314.969 180.621 321.248 180.621 C 321.248 186.57 321.248 192.52 321.248 198.651 C 327.122 198.651 332.998 198.651 339.051 198.651 C 339.051 204.821 339.051 210.991 339.051 217.348 C 345.144 217.348 351.236 217.348 357.514 217.348 C 357.514 223.518 357.514 229.689 357.514 236.046 C 339.453 236.046 321.392 236.046 302.784 236.046 C 302.784 241.996 302.784 247.946 302.784 254.075 C 296.691 254.075 290.599 254.075 284.32 254.075 C 284.32 260.246 284.32 266.415 284.32 272.773 C 272.194 272.836 260.171 272.628 248.053 272.105 C 248.053 278.275 248.053 284.446 248.053 290.803 C 254.147 290.803 260.24 290.803 266.517 290.803 C 266.517 296.973 266.517 303.143 266.517 309.501 C 272.61 309.501 278.702 309.501 284.981 309.501 C 284.981 315.67 284.981 321.841 284.981 328.198 C 272.794 328.198 260.609 328.198 248.053 328.198 C 248.053 322.028 248.053 315.857 248.053 309.501 C 242.179 309.501 236.303 309.501 230.25 309.501 C 230.25 303.33 230.25 297.16 230.25 290.803 C 224.157 290.803 218.065 290.803 211.787 290.803 C 211.787 284.853 211.787 278.903 211.787 272.773 C 205.912 272.773 200.037 272.773 193.984 272.773 C 193.984 278.723 193.984 284.673 193.984 290.803 C 187.891 290.803 181.798 290.803 175.521 290.803 C 175.521 296.973 175.521 303.143 175.521 309.501 C 169.645 309.501 163.77 309.501 157.717 309.501 C 157.717 315.67 157.717 321.841 157.717 328.198 C 145.532 328.198 133.346 328.198 120.791 328.198 C 120.791 322.028 120.791 315.857 120.791 309.501 C 126.883 309.501 132.976 309.501 139.254 309.501 C 139.254 303.33 139.254 297.16 139.254 290.803 C 145.129 290.803 151.004 290.803 157.058 290.803 C 157.058 284.853 157.058 278.903 157.058 272.773 C 163.15 272.773 169.243 272.773 175.521 272.773 C 175.521 266.603 175.521 260.432 175.521 254.075 C 181.614 254.075 187.707 254.075 193.984 254.075 C 193.984 248.125 193.984 242.176 193.984 236.046 C 182.016 236.046 170.048 236.046 157.717 236.046 C 157.717 229.875 157.717 223.705 157.717 217.348 C 145.749 217.348 133.781 217.348 121.45 217.348 C 121.45 211.398 121.45 205.448 121.45 199.318 C 115.357 199.318 109.265 199.318 102.987 199.318 C 102.987 193.148 102.987 186.977 102.987 180.621 C 96.894 180.621 90.801 180.621 84.524 180.621 C 84.524 168.5 84.524 156.381 84.524 143.893 Z" fill="#FDFD00" style=""/>
  <path d="M 302.784 199.318 C 308.659 199.318 314.534 199.318 320.587 199.318 C 320.587 205.268 320.587 211.218 320.587 217.348 C 314.712 217.348 308.836 217.348 302.784 217.348 C 302.784 211.398 302.784 205.448 302.784 199.318 Z" fill="#2121FF" style=""/>
  <path d="M 284.981 199.318 C 290.856 199.318 296.731 199.318 302.784 199.318 C 302.784 205.268 302.784 211.218 302.784 217.348 C 296.909 217.348 291.033 217.348 284.981 217.348 C 284.981 211.398 284.981 205.448 284.981 199.318 Z" fill="#E0DDFF" style=""/>
  <path d="M 320.587 180.621 C 320.805 180.621 321.023 180.621 321.248 180.621 C 321.248 186.57 321.248 192.52 321.248 198.651 C 327.122 198.651 332.998 198.651 339.051 198.651 C 339.051 198.871 339.051 199.091 339.051 199.318 C 333.175 199.318 327.3 199.318 321.248 199.318 C 321.248 205.268 321.248 211.218 321.248 217.348 C 321.029 217.348 320.811 217.348 320.587 217.348 C 320.587 211.398 320.587 205.448 320.587 199.318 C 308.836 199.318 297.087 199.318 284.981 199.318 C 284.981 205.268 284.981 211.218 284.981 217.348 C 284.763 217.348 284.544 217.348 284.32 217.348 C 284.32 211.177 284.32 205.008 284.32 198.651 C 296.289 198.651 308.257 198.651 320.587 198.651 C 320.587 192.7 320.587 186.75 320.587 180.621 Z" fill="#AAA948" style=""/>
</svg>